# xmcd
#
# Track frame offsets:
#	150
#	11530
#	24725
#	33795
#	46150
#	58983
#	71305
#	82438
#	95498
#	107590
#	118768
#	129555
#	142545
#	153163
#	162905
#	175033
#
# Disc length: 2484
#
# Revision: 3
# Processed by: cddbd v1.5.1PL0 Copyright (c) Steve Scherf et al.
# Submitted via: EasyCDDAExtractor 5.0.2.1
# Normalized: r2:DSETVAR1
#
DISCID=c809b210
DTITLE=Various Artist - All Time Blues Favourites [CD2]
DYEAR=1991
DGENRE=Blues
TTITLE0=Muddy Waters - Just A Dream
TTITLE1=Junior Parker - Feelin' Good
TTITLE2=Memphis Slim - Steppin' Out
TTITLE3=Otis Rush - So Close
TTITLE4=George 'Wild Child' Butler - Put It All In There
TTITLE5=Bo Diddley - Roadrunner
TTITLE6=Lee Dorsey - Get Out Of My Life Woman
TTITLE7=Carter Brothers - Southern Country Boy
TTITLE8=Jimmy Reed - Bright Lights, Big City
TTITLE9=Frank Frost and The Night Hawks - Jelly Roll King
TTITLE10=Howlin' Wolf - Wang Dang Doodle
TTITLE11=Elmore James - Baby Please Set A Date
TTITLE12=Johnny Winter - That's What Love Does
TTITLE13=Willie Johnson - So Long Baby Goodbye
TTITLE14=Otis Spann - Five Spot
TTITLE15=John Lee Hooker - Boom Boom
EXTD=
EXTT0=
EXTT1=
EXTT2=
EXTT3=
EXTT4=
EXTT5=
EXTT6=
EXTT7=
EXTT8=
EXTT9=
EXTT10=
EXTT11=
EXTT12=
EXTT13=
EXTT14=
EXTT15=
PLAYORDER=
